<?xml version="1.0" standalone="no"?>
<!DOCTYPE svg PUBLIC "-//W3C//DTD SVG 20010904//EN"
 "http://www.w3.org/TR/2001/REC-SVG-20010904/DTD/svg10.dtd">
<svg version="1.0" xmlns="http://www.w3.org/2000/svg"
 width="253.000000pt" height="253.000000pt" viewBox="0 0 253.000000 253.000000"
 preserveAspectRatio="xMidYMid meet">
<metadata>
Created by potrace 1.11, written by Peter Selinger 2001-2013
</metadata>
<g transform="translate(0.000000,253.000000) scale(0.100000,-0.100000)"
fill="#000000" stroke="none">
<path d="M1147 2233 c-4 -3 -7 -24 -7 -45 0 -49 -14 -49 -29 2 -13 42 -14 43
-48 34 -20 -6 -22 -11 -16 -51 5 -36 3 -45 -8 -41 -7 2 -18 19 -23 37 -8 27
-13 32 -35 29 -24 -3 -26 -6 -24 -50 3 -57 -10 -61 -38 -13 -23 39 -27 41 -53
22 -16 -11 -16 -15 -2 -49 22 -51 1 -62 -35 -19 -21 25 -32 31 -48 26 -25 -8
-26 -16 -5 -57 12 -22 13 -33 4 -42 -8 -8 -18 -3 -39 22 -32 36 -37 38 -57 18
-18 -19 -18 -22 7 -58 16 -22 19 -32 10 -41 -9 -9 -18 -5 -37 16 -28 31 -39
33 -60 13 -19 -19 -18 -29 6 -46 21 -15 27 -50 9 -50 -6 0 -22 9 -36 20 -32
25 -40 25 -54 -2 -10 -19 -8 -25 15 -44 47 -41 25 -68 -28 -35 l-33 21 -19
-21 c-18 -20 -17 -21 15 -48 44 -37 33 -60 -14 -32 -32 18 -34 18 -49 2 -23
-25 -20 -33 20 -59 44 -29 34 -46 -18 -30 -30 9 -39 8 -51 -4 -17 -17 -13 -27
26 -51 39 -25 34 -33 -20 -33 -44 1 -48 -1 -51 -25 -3 -22 2 -27 37 -38 28 -8
39 -16 35 -26 -4 -10 -15 -12 -37 -8 -18 3 -36 6 -42 7 -5 0 -11 -13 -13 -30
-3 -29 0 -32 33 -40 46 -11 42 -29 -6 -25 -31 2 -37 -1 -43 -21 -10 -39 -7
-48 17 -48 35 0 67 -11 61 -21 -3 -5 -23 -9 -45 -9 -39 0 -40 -1 -37 -32 3
-30 6 -33 41 -36 41 -4 52 -22 13 -22 -42 0 -56 -11 -56 -41 0 -28 2 -29 50
-29 28 0 50 -4 50 -10 0 -5 -7 -10 -15 -10 -36 0 -65 -23 -65 -53 0 -29 0 -30
45 -24 54 8 59 -7 10 -27 -35 -15 -44 -37 -26 -65 6 -9 18 -11 35 -7 19 5 26
3 26 -9 0 -8 -6 -15 -14 -15 -22 0 -27 -15 -16 -45 9 -23 14 -26 40 -20 19 4
30 3 30 -4 0 -6 -4 -11 -10 -11 -16 0 -23 -49 -10 -65 8 -10 18 -11 36 -4 14
5 27 9 30 9 10 0 3 -25 -12 -41 -12 -14 -13 -22 -4 -38 13 -26 20 -26 64 0 43
25 47 11 11 -33 -24 -29 -25 -32 -9 -49 21 -23 32 -24 56 -2 22 20 37 9 20
-15 -22 -31 -24 -42 -12 -57 18 -22 39 -18 62 10 18 23 48 34 48 18 0 -3 -11
-21 -25 -39 -14 -18 -25 -35 -25 -37 0 -3 12 -12 26 -22 26 -17 26 -17 56 20
40 47 61 33 28 -20 -24 -38 -18 -58 20 -68 14 -4 25 4 41 29 34 56 54 41 23
-18 -17 -33 -12 -43 27 -53 22 -5 28 -2 39 24 17 43 34 40 25 -5 -4 -26 -2
-39 7 -45 28 -18 46 -9 62 32 20 50 31 43 31 -19 0 -46 1 -47 33 -50 30 -3 32
-1 32 27 0 16 3 36 6 45 11 28 24 6 24 -38 0 -40 3 -44 27 -49 39 -7 43 -2 43
49 0 62 24 54 28 -9 3 -46 4 -47 37 -47 33 0 34 1 37 47 2 35 7 48 18 48 11 0
16 -13 18 -43 3 -43 3 -43 40 -40 l37 3 -3 47 c-3 39 -1 48 12 48 11 0 16 -9
16 -27 0 -41 13 -55 46 -51 28 3 29 5 26 51 -3 37 -1 47 12 47 9 0 18 -13 22
-36 6 -32 9 -35 38 -32 26 3 31 7 30 28 -1 14 -5 35 -9 48 -12 37 13 26 30
-14 12 -30 18 -34 37 -29 36 11 46 23 40 50 -5 29 5 33 23 9 11 -15 14 -15 43
0 l32 17 -20 39 c-13 26 -16 41 -9 46 9 5 21 -6 50 -49 8 -11 59 21 59 37 0 6
-7 21 -15 32 -20 30 -6 38 21 13 18 -17 26 -19 42 -10 12 6 22 23 24 38 2 17
8 27 16 25 7 -1 22 3 33 9 17 9 20 17 15 41 -5 26 -3 29 14 23 13 -4 24 2 36
21 18 26 17 27 -5 46 -29 22 -22 34 10 18 19 -11 25 -10 36 6 17 24 17 50 -2
58 -27 10 -17 28 13 21 24 -5 30 -2 40 20 17 37 15 42 -18 54 -42 14 -38 31 7
28 32 -2 37 1 43 23 4 17 1 29 -9 37 -14 11 -13 12 5 13 14 0 24 8 28 23 10
39 7 46 -29 53 -52 9 -53 24 -1 24 46 0 46 0 46 34 0 33 -2 35 -37 38 -52 4
-56 28 -4 28 40 0 41 1 41 35 0 34 -1 35 -40 35 -52 0 -52 16 1 24 38 6 40 8
37 39 -3 31 -5 32 -46 31 -46 -1 -54 18 -11 24 40 6 49 19 37 53 -8 23 -15 28
-29 24 -23 -8 -25 10 -3 23 9 5 14 18 12 33 -3 22 -7 24 -50 22 -57 -2 -61 9
-13 32 30 13 35 20 29 38 -10 34 -17 38 -52 28 -38 -11 -45 8 -11 31 17 10 20
19 14 37 -7 23 -14 24 -72 6 -32 -10 -30 18 3 44 22 17 23 22 12 40 -15 24
-35 26 -62 6 -40 -30 -50 -7 -15 31 41 43 0 80 -50 45 -16 -12 -32 -21 -35
-21 -14 0 -5 31 15 51 22 22 21 37 -3 52 -11 7 -24 4 -46 -13 -40 -30 -51 -20
-26 25 18 34 18 35 -1 49 -18 13 -23 12 -46 -10 -14 -13 -28 -24 -32 -24 -11
0 -8 28 5 49 9 15 9 23 -1 35 -19 23 -38 20 -57 -9 -24 -37 -37 -31 -29 13 5
34 3 39 -20 50 -24 11 -27 9 -42 -23 -17 -36 -51 -51 -38 -17 3 9 9 29 12 43
4 22 1 27 -21 33 -34 8 -43 3 -51 -34 -10 -47 -34 -38 -32 13 2 37 -1 42 -22
45 -26 4 -41 -12 -41 -45 0 -14 -6 -23 -15 -23 -11 0 -15 11 -15 39 0 26 -5
41 -16 45 -34 13 -43 6 -46 -36 -4 -59 -28 -63 -28 -4 0 46 0 46 -35 46 -35 0
-35 0 -35 -45 0 -25 -4 -45 -10 -45 -5 0 -10 13 -10 29 0 16 -3 36 -6 45 -6
16 -45 22 -57 9z"/>
</g>
</svg>
